<?xml version="1.0" encoding="UTF-8" standalone="no"?>
<svg
   xmlns:dc="http://purl.org/dc/elements/1.1/"
   xmlns:cc="http://creativecommons.org/ns#"
   xmlns:rdf="http://www.w3.org/1999/02/22-rdf-syntax-ns#"
   xmlns:svg="http://www.w3.org/2000/svg"
   xmlns="http://www.w3.org/2000/svg"
   xmlns:sodipodi="http://sodipodi.sourceforge.net/DTD/sodipodi-0.dtd"
   xmlns:inkscape="http://www.inkscape.org/namespaces/inkscape"
   version="1.1"
   id="svg2"
   xml:space="preserve"
   width="2000"
   height="2000"
   viewBox="0 0 2000 2000"
   sodipodi:docname="brett project.ai"><metadata
     id="metadata8"><rdf:RDF><cc:Work
         rdf:about=""><dc:format>image/svg+xml</dc:format><dc:type
           rdf:resource="http://purl.org/dc/dcmitype/StillImage" /></cc:Work></rdf:RDF></metadata><defs
     id="defs6"><clipPath
       clipPathUnits="userSpaceOnUse"
       id="clipPath18"><path
         d="M 0,1500 H 1500 V 0 H 0 Z"
         id="path16" /></clipPath></defs><sodipodi:namedview
     pagecolor="#ffffff"
     bordercolor="#666666"
     borderopacity="1"
     objecttolerance="10"
     gridtolerance="10"
     guidetolerance="10"
     inkscape:pageopacity="0"
     inkscape:pageshadow="2"
     inkscape:window-width="640"
     inkscape:window-height="480"
     id="namedview4" /><g
     id="g10"
     inkscape:groupmode="layer"
     inkscape:label="brett project"
     transform="matrix(1.3333333,0,0,-1.3333333,0,2000)"><g
       id="g12"><g
         id="g14"
         clip-path="url(#clipPath18)"><g
           id="g20"
           transform="translate(604.87,860.9)"><path
             d="m 0,0 c 347.63,-102.4 350.91,-328.22 338.77,-361.81 -12.14,-33.59 -33.93,-120.17 -150.04,-102.88 -116.1,17.29 -236.83,115.86 -296.46,229.57 -59.64,113.72 -24.1,220.62 -12.87,252.67 0.89,2.53 1.75,4.91 2.58,7.13 C -83.56,20.94 -44.43,13.08 0,0 M 669.419,-75.11 C 640.324,26.708 564.895,113.077 477.98,173.718 388.771,235.961 277.862,280.463 167.54,274.84 -33.37,264.6 -156.76,90.32 -156.76,90.32 c 0,0 -296.74,-5.8 -272.38,-255.79 1.23,-12.55 4.07,-24.92 8.7,-36.65 4.02,-10.22 9.58,-20.44 16.18,-22.32 7.88,-2.24 12.93,11.39 15.08,16.47 17.13,40.66 14.2,86.29 30.15,127.01 27.9,71.2 100.04,103.35 172.46,107.7 2.34,0.14 4.68,0.26 7.02,0.35 -17.31,-42.65 -75.04,-221.76 91.01,-394.11 190.17,-197.38 348.54,-175.84 406.36,-131.11 57.81,44.73 132.29,140.1 47.05,309.92 C 279.63,-18.4 27.63,78.6 -89.37,80.6 c 0,0 148.82,215.49 437.41,106.74 266.23,-100.31 294.57,-303.4 297.36,-334.27 0.25,-2.8 0.52,-5.6 0.79,-8.41 2.17,-22.03 7.69,-119.64 -60.52,-145.2 -62.41,-23.38 -116.92,110.66 -135.37,162.41 l 2.467,-17.275 c 3.774,-26.433 10.575,-52.378 20.745,-77.067 8.045,-19.532 18.054,-38.198 31.018,-54.618 25.05,-31.71 59.6,-58.81 112.63,-29.37 46.219,25.659 63.2,90.63 64.86,140.5 1.162,34.944 -3.405,68.668 -12.601,100.85"
             style="fill:#f07db0;fill-opacity:1;fill-rule:nonzero;stroke:none"
             id="path22" /></g></g></g></g></svg>
